<?xml version="1.0" ?><!DOCTYPE svg  PUBLIC '-//W3C//DTD SVG 1.1//EN'  'http://www.w3.org/Graphics/SVG/1.1/DTD/svg11.dtd'><svg fill="#5d5d5d" enable-background="new 0 0 24 24" height="24px" id="Layer_1" version="1.1" viewBox="0 0 24 24" width="24px" xml:space="preserve" xmlns="http://www.w3.org/2000/svg" xmlns:xlink="http://www.w3.org/1999/xlink"><g><rect height="2" width="1" x="10" y="10"/><rect height="2" width="1" x="13" y="10"/><rect height="2" width="1" x="13" y="5"/><rect height="2" width="1" x="10" y="5"/><rect height="2" width="1" x="10" y="13"/><rect height="2" width="1" x="13" y="13"/><rect height="2" width="1" x="10" y="16"/><rect height="2" width="1" x="13" y="16"/><path d="M23,22h-4V9c0-0.6-0.4-1-1-1V3c0-0.6-0.4-1-1-1h-3V0.5C14,0.2,13.8,0,13.5,0S13,0.2,13,0.5V2h-2V0.5C11,0.2,10.8,0,10.5,0   S10,0.2,10,0.5V2H7C6.4,2,6,2.4,6,3v5C5.4,8,5,8.4,5,9v13H1c-0.6,0-1,0.4-1,1v1h24v-1C24,22.4,23.6,22,23,22z M8,4h8v4H8V4z M13,22   h-2v-2h2V22z M17,22h-3v-3h-4v3H7V9h10V22z"/></g></svg>